# xmcd
#
# Track frame offsets:
#	160
#	14800
#	43480
#	58500
#	73132
#	91300
#	115160
#	137442
#	167300
#	181257
#	195132
#	215732
#	235970
#	255740
#	268377
#	284670
#	299987
#	316247
#
# Disc length: 4434 seconds
#
# Revision: 0
# Processed by: cddbd v1.5.2PL0 Copyright (c) Steve Scherf et al.
# Submitted via: audiograbber 1.83.01
#
DISCID=20115012
DTITLE=Various Artist - The Night Blues Festival
DYEAR=1996
DGENRE=Blues
TTITLE0=ДОЖДЬ - Johnny B.Goode
TTITLE1=ДОЖДЬ - Nine Below Zero
TTITLE2=ДОЖДЬ - Down By The River Side
TTITLE3=The Old Men's Blues Band - Rout 66
TTITLE4=The Old Men's Blues Band - So Long
TTITLE5=The Old Men's Blues Band - Doctor Feelgood
TTITLE6=The Old Men's Blues Band - Heartbreaking Blues
TTITLE7=Удачное Приобретение - Ramblin' On My Mind
TTITLE8=Удачное Приобретение - Boney - Maroney
TTITLE9=Удачное Приобретение - I Can't Hold Out
TTITLE10=Stainless Blues Band - Don't Take Advantage Of Me
TTITLE11=Stainless Blues Band - Crossroads
TTITLE12=Stainless Blues Band - My Baby
TTITLE13=Stainless Blues Band - I Want To Be Loved
TTITLE14=Лига Блюза - In From The Storm
TTITLE15=Лига Блюза - Rcok-n-Roll Hoochie Coo
TTITLE16=Лига Блюза - Открой Глаза, Дружище
TTITLE17=Лига Блюза - Я Отменяю Этикет
EXTD=Arbat Blues Club
EXTT0=
EXTT1=
EXTT2=
EXTT3=
EXTT4=
EXTT5=
EXTT6=
EXTT7=
EXTT8=
EXTT9=
EXTT10=
EXTT11=
EXTT12=
EXTT13=
EXTT14=
EXTT15=
EXTT16=
EXTT17=
PLAYORDER=
